<svg width="69" height="75" viewBox="0 0 69 75" fill="none" xmlns="http://www.w3.org/2000/svg">
<path d="M67 20V56L36.5 72V35.5L67 20ZM67 20L35 2.5L2 20M2 20V56C12 62 32 73.6 32 72C32 70.4 32 47 32 35.5L2 20ZM22 45L17 33L6 46L27 58L23.5 49.5M6 53C7.2 53 20.5 60.6667 27 64.5M54 20L35 29.5L22 22M17 16.5L35 6" stroke="#7628C5" stroke-width="3"/>
<ellipse cx="51.6891" cy="45.299" rx="9.43282" ry="13.606" transform="rotate(32.9043 51.6891 45.299)" fill="#7628C5"/>
<path d="M34 12.7004L39.9615 9.49568V15.9051L34 12.7004Z" fill="#7628C5"/>
<path d="M47.9486 12.7005L41.9871 15.9052V9.49577L47.9486 12.7005Z" fill="#7628C5"/>
</svg>
