<?xml version='1.0' encoding='utf-8'?>
<svg xmlns="http://www.w3.org/2000/svg" enable-background="new 0 0 5000 4975.2056" version="1.1" viewBox="0 0 5e3 4975.2"> <path d="m2311.9 178.08c0 0.3678 0.0249 602.76 0.4119 604.37 2.7944 11.629 132.34 135.96 191.13 193.64 181.62-180.55 190.05-185.57 190.46-198.31-0.0725-12.027-3.4453-585.97 0.2781-599.01 56.986-30.409 71.093-87.704 38.877-141.95-97.781-106.34-237.53 45.49-127.17 129.23 8.4563 6.4211 18.441 10.779 28.391 14.315 0.2708 543.49 0.3027 439.45 0.0249 555.34-0.1279 32.846 23.337 8.9651-129.08 155.76-48.604-38.058-90.856-86.534-133.92-130.69l-0.4663-580.53c27.746-11.445 49.046-25.459 60.857-54.685 8.5356-21.129 8.7046-50.649-0.7991-71.418-10.064-21.994-30.902-41.561-53.964-49.317-15.572-5.2379-30.123-5.2939-46.217-4.393-80.071 23.046-96.477 107.08-50.564 155.16 9.2702 9.7075 20.049 16.257 31.751 22.484zm340.26-117.22c27.255-3.3058 45.84 17.839 38.247 41.174-3.707 11.379-12.754 15.75-22.917 20.506-7.0916 0.0968-15.707 0.7781-22.322-2.2227-23.097-10.478-28.083-49.41 6.9924-59.457zm-315.93 0c33.452-12.032 65.148 35.415 21.275 59.823-5.7864 1.194-11.434 1.9757-17.369 1.532-23.611-1.766-40.246-39.336-3.9055-61.355z"/> <path d="m4812.4 3118c-84.892-7.0093-133.27 59.156-139.47 60.867-7.3833 2.0417 22.617 1.4382-440.26 2.387-0.3789-0.3831-497.61-503.02-501.48-505.85-650.96-1.5051-608.98-1.1438-614.92-3.0024l-0.0996-75.258 687.39-2.0691 358.55 359.77 199.59-0.1438c56.69 101.38 160.71 64.809 180.93-16.759 11.03-44.511-19.752-98.276-68.197-110.44-24.485-6.1487-49.706-3.3201-71.308 9.8757-23.146 14.128-32.883 32.168-43.498 56.053-187.54 0.217-170.8 1.4875-173.56 0.2034-5.0322-2.3452-352.29-355.28-360.03-358.14-2.2756-0.8416 33.096-0.6631-708.49-1.2207l-0.0742-78.087c763.43-0.3044 706.85 0.1523 710.02-0.6401 11.086-2.7791 61.134-58.008 72.127-69.07 30.093-30.282 277.43-283.33 285.21-284.86 4.7046-0.9282 174.48-0.835 179.64-0.8438 7.9365 24.895 20.964 47.894 44.227 59.805 87.542 44.838 166.37-43.844 132.14-121.86-19.12-43.574-76.058-71.649-130.04-43.77-19.314 9.9698-34.094 26.411-46.525 43.924l-156.24 0.918c-11.156 0.0348-38.416-3.2256-48.281 1.3201-0.7192 0.3317-292.47 289.65-355.34 355.48-729.79-1.4255-681.86-0.426-686.87-3.0071l-0.2681-76.261c650.08 0.0945 607.47 0.4771 615.25-0.918 533.78-541.51 497.73-505.78 501.16-507.43 3.8911-1.8699 445.66-0.5415 448.75 0.3621 1.9355 0.5657 7.6377 6.5308 9.3999 8.0096 125.92 105.76 278.12 20.102 276.16-118.82-2.2378-147.82-184.51-203.32-270.64-110.34-7.6226 8.2229-13.861 17.9-20.104 27.185-582.62 0.5303-543.55 0.1096-545.75 0.7491-7.3789 2.1366 22.64-26.454-501.27 500.46-61.661-0.0742-501.86 3.7571-512.14-1.4189l0.3477-117.6c0.0459-33.042 6.3733-65.067-19.25-92.226-25.91-27.463-80.911-19.622-115.22-19.687l-96.469-0.1389c0.1289-46.113-2.8289-519.39-0.6453-523.84 4.8687-9.9602 388.28-388.23 388.68-388.63 34.709-34.104 75.104-66.703 105.49-104.59-1.3022-526.21-1.3464-509.67-0.3176-512.26 3.5222-8.9123 61.888-49.564 62.008-126.98 0.0645-43.329-18.992-84.571-49.865-114.36-62.999-60.789-165.38-56.184-222.42 3.2917-68.445 71.37-57.274 166.97-1.2952 219.59l21.027 18.164-0.8584 416.7c-460.33 447.49-196.52 198.06-470.91 459.84-7.1311 6.7538-27.036 21.275-31.101 29.383-1.0779 2.1515-0.6653-39.35-0.3574 623.69l-79.179 0.0895-0.01-688.17c375.04-374.8 341.44-337.19 345.29-345.38 1.4109-3.0027 0.6729 6.5197 1.2405-213.85 26.758-11.1 48.112-27.665 58.52-55.328 32.941-87.561-63.866-157.58-135.87-114.69-43.6 25.966-60.716 85.941-29.299 131.13 11.771 16.922 29.389 27.989 46.991 38.009 0.0149 8.3206 0.7366 182.15-0.4119 190.93-25.042 25.017-342.58 338.31-344.8 344.8-0.2212 0.6447-0.1794-33.155 0.179 711.76l-91.015-0.3029c-0.1785-634.56-0.175-505.31-0.0894-675.53-0.2454-35.281 7.135-28.901-17.072-52.991-343.21-341.12-320.87-317.25-331.63-332.01l-0.4167-188.55c134.88-69.048 23.49-230.34-83.611-169.83-45.884 25.935-58.73 84.228-33.776 125.01 13.404 21.905 35.388 34.372 58.256 44.569l0.7048 163.52c0.0349 12.203-3.2802 37.007 0.134 48.024 4.7993 15.493 346.15 346.05 348.69 352.88 0.4314 1.1614 0.2646-32.568 0.1392 685l-79.124-0.3079-1.4292-622.45-498.98-491.31c0.2793-446.3-0.1769-418.48 0.0148-419.01 1.3649-3.7453 12.546-13.043 15.697-16.469 98.068-106.6 26.313-271.92-121.28-269.16l-23.181 1.5558c-43.116 9.9822-81.874 30.784-105.88 69.252-21.91 35.106-32.148 78.205-22.714 119.05 15.104 65.405 56.028 88.847 58.634 94.737 0.163 0.3672 0.0867 144.22 0.3228 494.3 0.026 23.882-6.8318 15.607 24.257 46.966 206.05 206.61 472.25 468.74 472.75 470.79 0.6111 2.4971 0.2749 230.67 0.0098 523.37l-110.16-0.2732c-19.88-0.2281-45.22-4.2181-64.425 0.4866-24.854 6.0874-45.805 31.726-51.13 55.174-3.9602 17.469-1.0322 41.537-0.9032 59.487l0.6204 117.05c-250.48 0.47-506.3 1.1921-506.67 1.0818-2.2333-0.6628-56.083-53.894-509.46-500.78l-534.55 1.3894c-63.34-87.425-163.23-97.414-232.46-47.344-77.51 56.064-87.136 160.83-33.12 232.25 54.009 71.425 157.16 79.439 223.23 28.351l24.91-22.754 443.02-0.5807c201.97 204.76 116.43 117.93 380.04 385.79 15.816 16.243 109.77 118.51 117.1 120.55 1.0696 0.2983 629.14-0.7141 629.53-0.7146l0.0746 77.427-695.59 1.3398c-329.44-330.42-267.37-267.63-331.91-334.48-2.7491-2.9875-12.238-15.87-15.295-16.982-2.6498-0.967-215.91 1.6887-219.22-0.5312-2.8137-1.8856-8.9724-15.419-11.493-19.052-33.904-48.884-104.62-52.414-140.68-16.595-40.963 40.672-38.978 108.1 2.3224 143.03 48.785 41.254 131.21 23.26 150.34-47.502l193.01 0.104c2.5016 2.9958-24.104-24.099 347.62 352.14 761.86 0.6667 702.89-0.1992 719.51 3.1562l0.7445 78.678-718.45 1.1763-354.1 356.97-185.23-0.5308c-11.732-28.974-27.495-51.563-56.926-63.572-20.67-8.4265-49.061-7.0669-69.214 1.8113-49.344 21.723-72.373 80.508-46.659 129.85 12.079 23.181 36.902 42.778 61.949 49.478 38.457 10.28 83.665-8.9592 108.58-57.239l159.55-0.1289c13.553 0.0449 39.408 3.717 51.815 0.1934 0.3672-0.1045 224.04-225.49 353.27-355.52l695.38-0.0793-0.0345 79.114-628.59 0.4319-492.6 502.43-442.63-1.1165c-30.846-33.185-66.377-58.515-113.58-60.292-163.53-6.1577-226.05 179.35-129.03 276.45 64.154 64.197 170.26 60.213 225.05 4.2732 7.3512-7.5039 21.36-30.019 30.545-30.272 563.01 0.0327 530.84 1.1384 532.82 0.5857 2.1843-0.6091-32.494 33.258 494.25-491.41l522.76 1.0322-0.1292 111.14c0.0695 37.552-5.7233 65.947 23.186 96.285 40.974 43.02 93.94 13.934 201.89 24.64 2.0916 453.42 1.7615 361.25 1.9009 473.36 0 41.62 7.0356 29.401-23.771 60.525l-413.91 418.12c-10.168 10.377-52.058 45.682-55.17 55.225-0.6228 1.9165 0.027 349.76 0.2233 527.04-38.768 38.237-66.187 75.537-66.47 132.5-0.4493 88.832 78.165 158.66 160.46 157.41 95.253-1.5063 159.97-76.697 157.68-161.58-1.3448-50.108-26.367-86.539-59.046-122.25 0.0675-138.65 0.0393-431.06 0.1887-431.5 3.4617-10.309 497.95-494.33 500.89-503.53 0.1365-0.4275 0.5952-607.24 0.5957-607.65l74.698 0.1841c1.8506 731.65 2.2124 680.96 1.3103 682.82-1.8022 3.719 16.656-15.312-344.52 343.15l0.3821 223.78c-26.411 12.362-47.612 27.533-58.504 55.75-18.143 46.987 3.7593 105.78 57.383 122.49 59.807 18.629 111.51-14.753 124.37-67.989 10.635-44.012-12.401-93.702-63.993-108.74l-0.958-150.89c-0.0645-11.985-3.1907-36.808 0.2781-47.735 0.9534-3.0049-9.7407 8.2598 238.25-236.97 98.87-99.202 98.348-97.809 107.43-111.08-0.2891-3.8738-0.3787 50.907 2.2383-704.54l84.797 0.3772c0.563 743.66-0.1914 691.86 1.9006 695.86 2.4304 4.6338 346.68 362.37 346.69 362.38 2.8733 7.2354-0.1492 31.741-0.1887 40.44l-0.4915 152.17c-94.063 41.803-72.788 150.54-0.4167 175.57 47.024 16.256 107.94-10.652 122.62-67.76 8.9451-34.825-7.1274-80.711-41.84-100.58-3.5383-2.0249-18.422-7.082-19.95-9.166-0.9565-1.3022 1.2104-211.41-0.6997-215.18-1.4343-2.8218-342.72-358.96-346.49-367.88-0.6326-1.4995 0.9604 43.962 0.0249-665.66l77.695-0.0593c3.8748 16.025 1.427 623.65 2.3423 625.38 1.3306 2.5161 503.55 482.11 506.16 489.11 0.1392 0.3706-0.0413 193.3-0.0547 315.58 0.0149 32.654 4.104 70.42-1.0818 102.15-31.741 22.208-57.507 54.416-64.45 93.526-16.906 95.199 40.3 175.25 144.17 189.62 159.17 2.9106 223.62-173.77 124.35-269.95l-11.334-10.61-1.3799-526.52-492.01-493.81-0.0149-515.12 112.79 0.1836c38.208 0 68.623 5.7156 95.59-21.28 26.456-26.471 20.208-69.552 20.173-103.75-0.2322-105.57-1.5742-99.361 1.2905-106.42l512.79-0.1289c14.753 20.925 314.16 319.49 387.94 393.37 81.556 83.687 84.821 89.187 101.78 97.977l540.77-0.7444c101.05 132.92 282.61 67.097 298.09-62.564 12.372-104.04-58.653-180.47-148.96-187.91zm-370.66-228.45c5.5679-0.8188 11.473-1.7815 17.017-0.3721 30.003 7.6116 34.45 48.526 0.3774 61.259-6.8389 1.1262-15.618 1.2554-22.332-0.7346-17.935-5.3288-35.677-44.808 4.938-60.152zm6.9873-843.65c33.502-5.6852 45.804 26.421 35.22 45.999-5.1069 9.4541-12.393 12.665-22.332 15.275-6.7246 0.6301-14.963 1.0073-21.345-1.613-22.743-9.3253-29.416-48.444 8.4565-59.661zm280.27-401.09c27.452-40.835 84.579-51.706 124.11-31.92 76.779 38.45 77.553 162.46-27.746 189.57-97.282 8.2456-140.24-92.343-96.359-157.65zm-1068.6 528.44c15.107-10.846-57.758 57.027 494.25-496.18l497.38-0.3425c-0.1133 25.027-1.6895 49.944 3.5479 73.919-486.72 1.7253-452.35 0.6879-454.78 1.7119-0.3672 0.155-493.63 503.56-498.05 505.09-2.1877 0.7605-381.92-1.0269-585.66-1.8115l-0.1343-80.181 543.44-2.2037zm-764.26-1638c4.3074-9.7966 12.024-13.841 21.428-17.831 5.8413-0.9727 11.677-1.8511 17.503-0.2681 28.166 7.6479 30.432 52.292-1.9802 65.234-5.4241 0.5114-12.015 0.9874-17.369-0.4271-16.392-4.332-28.261-26.956-19.583-46.708zm-814.14 43.11c-5.717 0.407-11.995 1.0121-17.523-0.8193-15.497-5.1443-26.427-27.41-18.481-45.075 5.062-11.256 14.759-14.198 25.483-18.481 14.632 1.1256 28.782 2.7373 34.232 17.082 6.7319 17.741-0.1955 39.545-23.712 47.294zm-1869.4 1225.7c-28.256 0.7544-50.346-2.4017-73.082-21.111-45.372-37.324-44.303-108.82-10.187-147.59 18.906-21.493 41.721-29.026 69.245-31.339 19.664 1.0322 36.51 2.8784 53.977 12.789 64.493 36.604 77.058 161.99-39.952 187.25zm1079.7 451.43-491.21-501.66c-14.271-2.1099 18.387-1.6666-445.42-2.2382l3.8491-73c251.52-0.4271 492.48-0.5544 493.12-0.3523 11.397 3.6316 495.07 492.56 502.21 497.08 8.1882 5.1812 94.677 1.3352 109.64 1.3152l428.44 0.9927 0.1986 76.042-600.83 1.8259zm-743.69-147.81c-6.3076 0.9031-14.352 0.6355-20.069-2.521-21.526-11.896-26.223-50.444 8.8088-59.229 5.96-0.2035 13.146-0.01 18.66 2.4169 22.431 9.8757 30.914 49.662-7.3994 59.333zm26.079 823.72c-5.3152 10.337-13.632 14.01-24.104 17.727-5.4938 1.1165-11.672 1.3401-16.863-1.2358-13.46-6.6802-23.711-27.192-14.173-45.463 5.3101-10.164 15.052-12.923 25.414-15.334 29.128-0.4061 39.816 24.695 29.726 44.306zm-287.99 406.05c-40.856 62.01-153.21 59.965-179.2-24.813-7.8048-24.193-6.3512-52.639 4.9562-75.586 15.351-31.146 39.898-47.19 71.673-58.023 23.818-0.7546 46.443-0.7842 67.527 12.247 53.689 33.176 65.669 99.693 35.039 146.17zm1100.6-519.35c-10.868 0.0991-32.599-2.1538-42.019 1.0171-8.9078 2.9946-487.54 487.29-497.12 492.06-4.92 2.4465-231.93-0.6882-487.2-0.2034 0.5548-28.126 0.6945-45.15-2.9587-70.365 469.48-0.7495 435.23 3.6628 449.98-9.1709 12.746-11.082-53.363 54.346 479.94-492.72 564.22-0.6072 437.89-0.3821 606.29-0.9231l0.0695 80.459c-438.7-0.3629-318.67-0.3507-506.98-0.1586zm725.11 1645.7c-4.8735 10.381-12.397 14.486-22.893 17.761-19.421 2.4434-29.032-4.2822-35.279-16.014-9.6125-18.078-3.4512-38.666 21.22-49.949 6.1091-1.166 10.402-1.6968 16.585 0.2188 20.93 6.4996 28.37 30.933 20.367 47.984zm802.11-46.957c6.6946-0.521 14.253-1.4141 20.764 0.5908 24.989 7.7109 31.374 48.027-2.1143 62.758-15.364 2.9966-27.409 1.7954-37.22-11.935-5.4639-7.6475-7.479-17.434-5.583-26.605 2.5161-12.198 14.183-19.339 24.153-24.808zm272.55-4165c-7.0815-23.366-1.8508-50.217 10.099-70.918 16.774-29.052 38.679-40.669 69.795-48.918 19.975-0.7001 35.369-0.5531 54.128 7.7864 25.111 11.167 45.864 31.086 54.768 57.509 7.99 23.715 6.6946 54.504-5.4441 76.492-15.012 27.192-37.82 40.961-67.139 48.773-24.471 2.2895-47.552 0.1179-69.562-11.562-21.97-11.66-39.508-35.606-46.644-59.162zm-440.25 1039 501.03-489.1c1.5808-11.843 0.8298 23.608 1.7021-420.22 73.568-0.7025 64.027-0.5636 69.08-0.7736 6.6226 8.6375 0.342-12.319 4.397 461.53-511.47 507.51-490.93 487.27-493.76 494.94-1.9731 5.3474-1.4172-39.893-1.3052 547.91-79.886 0.1619-74.195 1.4944-81.641-3.0371l0.4913-591.25zm-1109.2-1123c49.511-70.466 159.91-52.249 180.59 35.049 6.1437 25.954 0.4218 55.022-14.491 76.957-17.573 25.843-42.227 36.727-71.641 42.684-25.066 1.6167-45.651-0.268-67.363-14.356-46.693-30.29-58.219-96.036-27.096-140.33zm43.914 669.65c-0.1545-0.3694-0.1107-426.44-0.119-458.29l80.102 0.234 1.1761 414.84 496.6 495.82 0.5757 594.67c-21.872 0.731-77.373 2.5463-80.251 0.2281-1.6467-1.2343-1.1482-543.08-3.2505-549.17-6.3524-18.412-488.35-482.88-494.83-498.34zm54.768 4037c-130.1 15.261-163.03-165.96-30.272-194.05 22.237-1.2705 41.244-0.5264 61.353 10.719 67.171 37.595 76.529 151.84-31.081 183.33zm525.65-1180.7-501.63 500.21-1.9357 425.02c-1.7218 1.2305-3.0916 3.2656-5.1609 3.687-6.6353 1.3501-21.126-2.6899-28.808-2.9424-12.938-0.4175-25.309 1.5527-38.034 3.667-0.6213-430.24-0.4436-344.38-0.8137-451.4-0.1315-32.252-4.4198-24.181 9.8706-38.862 98.788-101.07 481.87-479.74 483.95-486.85 1.6453-5.6443-1.3726 41.582 1.0569-536.83l79.705 0.1885c2.3659 9.3685 1.3002-35.592 1.8063 584.12zm1028.6 1170.9c-24.327-0.3174-46.997-3.5879-67.045-18.888-65.606-50.085-47.622-162.89 53.82-175.14 121.01-2.5162 147.73 172.64 13.226 194.02zm-322.74-1073.1 356.58 358.4 0.4565 467.15c-24.446-5.5879-46.5-4.6104-71.229-3.5479l-1.97-416.59-506.59-489.56 1.062-597.63 82.822 0.0598c0.6309 101.3 3.1003 541.97 3.7517 543.88 3.9655 11.613 117.68 120.3 135.12 137.85zm90.886-865.45c0.1865 102.49 0.926 100.16-2.0647 111.01-5.593 6.2925-6.5706 8.0344-14.888 10.56l-1076.3-0.2827c-20.492-3.0737-14.062-49.43-14.109-68.574-9e-4 -0.6133-1.4984-998.96 1.7023-1016.3 5.5034-8.8979 11.101-11.821 20.257-16.58 27.14-1.5245 1047.3-1.9219 1061.6-1.0867 10.675 0.6204 13.161 2.501 20.942 9.1311 5.0534 16.009 1.6933-60.285 2.8342 972.1zm1584 383.88-496.24-0.094c-11.789-7.8755-475.69-483.33-486.58-488.79-12.403-6.2163-10.423-2.7092-541.78-3.8809l0.2034-82.435 585.7-0.3623c509.05 514.76 492.18 500.45 504.14 504.38 6.3569 2.0837-30.1 1.2825 436.27 1.8958l-1.7114 69.288zm245.47 21.25c-15.602 27.126-39.925 39.612-68.936 47.314-24.084 1.6079-46.699 1.469-68.157-11.598-53.941-32.834-61.416-98.582-35.076-141.37 16.565-26.912 40.163-39.225 69.591-46.778 22.565-0.6602 40.679-0.541 61.274 10.516 56.352 30.247 66.925 97.36 41.304 141.92z"/> <path d="m3373.6 931.46c-36.227 30.665-35.297 65.078-20.118 109.25-39.132 47.609-367.72 369.42-369.93 377.99-2.8787 11.37 0.074 32.247 0.0989 44.425l0.4221 179.88c0.0396 15.097 3.5828 38.649 0.397 52.589-0.7097 3.1067-14.913 15.464-17.796 19.076-7.821 9.802-10.648 17.931-13.484 28.972-19.131 82.37 75.64 143.15 144.66 90.226 27.295-20.923 36.094-54.49 39.865-87.1 586.11-583.66 545.18-539.71 546.96-543.96 1.4922-3.5903-2.5522-437.17 3.6128-446.76 1.3699-2.1451 45.332-20.131 65.026-34.172 12.406-8.8483 21.617-20.124 29.692-32.922l2.1685 526.37 531.3 0.849c-37.012 26.932-58.157 53.04-69.135 98.935l-462.94 0.2778c-547.45 549.17-462.32 463.75-531.87 533.59-4.2974 4.3969-13.052 16.034-18.153 18.679-2.4536 1.2747-40.602-1.7999-70.281 35.265-54.228 67.737 15.746 161.03 94.092 142.75 17.866-4.1637 34.574-14.848 49.522-25.126 244.2 0.8057 196.57 0.6353 252.59 0.8735 15.126-0.0417 8.8345 2.6609 20.188-8.5955 37.463-37.28-3.6567 4.1772 248.42-251.05 39.085-38.624 83.874-76.196 118.65-118.39 91.378 30.904 159.99-62.475 110.87-135.9-48.174-72-158.52-45.377-167.67 39.701-2.1787 20.218 2.7544 37.528 9.6426 56.167-1.8413 10.134-65.7 67.884-76.723 78.827-304.99 305.58-259.31 262.58-278.63 279.59l-220-1.0917c-3.0566-30.734-11.255-46.614-29.88-70.941 543.61-541.6 512.93-513.93 516.51-515.27 0.3748-0.1404 411.51-0.1984 442.37-0.2134 58.832 195.65 326.09 106.89 274.92-80.822l175.92-171.21c116.09 25.312 195.06-33.632 212.14-120.93 19.148-97.842-48.492-175.88-128.56-190.8-94.751-17.666-210.99 55.41-188.84 195.11l-150.04 150.89-561.73-0.3971 659.28-661.11c92.081 53.975 185.84 22.608 229.74-53.687 45.531-79.127 14.965-181.96-64.748-222.76-89.303-45.711-187.74-4.6323-222.97 69.612-18.406 38.792-23.418 82.088-8.4517 122.92 5.6279 15.364 14.055 29.537 22.69 43.365l-660.97 660.89c-0.1333-40.638-1.9871-553.48-1.5928-554.29 2.8169-5.8021 127.12-126.17 161.48-167.83 50.034 2.4522 91.829-5.9653 130.19-40.007 116.25-103.14 32.667-274.22-92.677-281.26l-35.061 0.6239c-46.654 9.5918-85.75 30.015-112.35 70.78-20.208 30.972-33.21 79.524-25.662 116.11l13.066 45.686-171.22 171.95c-189.4-40.35-244.9 177.65-127.82 252.63 18.559 11.881 44.424 20.881 45.076 21.841 0.5315 0.7929 0.5334 128.61 0.804 426.76l-526.76 519.07c-18.308-15.884-30.837-19.832-55.671-22.798l-0.9675-188.21c-0.0398-8.491-3.062-37.706-0.199-44.272 0.1604-0.3673 346.58-354.92 357.82-358.4 31.139 18.755 92.594 3.4729 115.39-42.197 5.9995-12.018 7.8425-21.03 9.801-32.873 7.28-49.086-37.388-92.999-80.027-97.436-24.749-2.5704-53.344 4.0749-72.455 20.253zm577.69 616.26c3.7019-10.848 11.181-15.513 20.977-20.392 4.4966-0.8188 8.7644-1.7467 13.335-0.9231 28.95 5.2246 40.76 43.323 6.3269 60.475-6.3767 1.6823-14.679 2.9478-21.121 0.8932-13.916-4.438-25.539-22.408-19.518-40.053zm-688.93 427.49c-3.96 7.2506-9.2253 9.3102-16.545 12.149-16.772 1.1199-25.69-1.0132-37.612-20.243-2.676-16.16 0.0132-25.617 17.821-35.329 6.6892-1.9205 11.95-2.928 18.823-1.0076 7.1213 1.9901 14.972 8.5955 18.024 15.394 3.4093 7.6079 3.568 21.563-0.5113 29.036zm1477.9-1106.2c22.709-1.6629 43.17-0.2533 63.978 10.262 71.456 36.104 87.243 156.1-27.85 189.72-23.29 1.4989-41.642 1.5137-62.873-9.7218-79.325-41.983-78.454-159.55 26.744-190.26zm-113.57 193.97c7.5381 8.0447 18.223 17.077 23.027 26.967l-146.22 146.14c-9.896-8.6993-20.61-15.082-31.88-21.766 56.346-42.564 105.61-100.98 155.08-151.35zm-254.72 190.75c16.808-2.0743 33.215-2.3375 49.214 3.7122 49.113 18.563 69.384 70.623 47.045 119.79-10.5 23.116-30.276 36.188-53.477 44.505-76.812 18.606-125.07-61.356-98.955-119.06 11.657-25.756 30.888-38.694 56.172-48.951zm241.54-992.63c22.898-2.1443 44.257-1.1999 65.264 9.0997 24.347 11.936 42.629 31.567 50.986 57.554 8.3472 25.965 6.3374 60.251-7.1758 84.054-14.928 26.3-39.607 39.978-67.869 47.06-20.387 2.3769-40.128 2.233-59.085-6.5906-81.5-37.911-86.472-158.46 17.88-191.18zm-597.09-128.89c85.702-5.9619 139.47 90.518 93.164 156.01-31.005 43.87-90.153 54.217-129.31 34.134-77.485-39.742-76.753-166.12 36.143-190.15zm-96.802 216c9.2988 10.361 16.66 16.558 26.163 23.654l-156.57 158.47-6.2427 3.3204-21.444-26.367 158.09-159.08zm-325.53 218.77c15.94-23.498 37.656-32.857 64.782-37.532 15.181 0.5903 29.925 2.7938 43.502 10.089 59.869 32.162 69.336 129.54-34.436 156.71-62.075 4.5097-115.71-67.565-73.849-129.27zm-524.8 1205.9c-3.3496 9.8856-10.734 14.153-19.503 18.773-31.618 9.2688-58.06-34.878-18.039-53.363 29.326-8.7773 43.633 16.588 37.542 34.59zm394.61-763.63c-3.0371 11.36-9.7712 15.891-19.528 21.483-14.532 2.2327-27.693 0.4022-35.612-11.925-11.231-17.501-3.3345-36.294 15.161-47.244 5.2207-0.9332 10.908-2.2088 16.158-0.8933 16.718 4.1772 28.133 22.432 23.821 38.579z"/> <path d="m132.15 1084.7c48.978 46.698 107.48 51.269 171.49 35.503l168.04 168.05c-7.4789 50.009-7.1414 92.201 24.525 134.57 61.546 82.344 193.24 74.849 243.72-14.64 1.7765-3.1515 14.193-33.672 14.918-34.123 1.1176-0.6947 159.31 1.5604 431.69-1.0966 531.36 536.17 492.88 490.58 516.47 520.78-19.085 22.772-23.054 41.148-28.188 71.601-217.97-0.0841-201.71 1.6104-205.26-0.0793-4.464-2.1234-351.45-352.08-361.58-367.56 9.4639-23.032 13.667-49.607 4.2927-73.556-34.435-88.047-143.83-77.708-170.76-0.4365-22.615 64.91 30.241 136.8 101.8 123.47 3.4292-0.6351 18.56-5.7914 20.714-5.156 1.057 0.3132 6.183 7.8339 381.07 382.77l259.19-1.8461c17.583 17.538 31.93 26.168 57.701 26.391 83.003 0.7349 124.44-104.12 66.187-156.67-27.757-25.044-57.624-21.857-64.097-24.669-9.8529-4.2765-552.34-553.6-555.66-555.17-0.3702-0.1752-122.73 0.4515-451.92 0.4515-2.4713-1.9751-11.24-33.488-13.975-39.552-10.456-23.205-26.441-39.786-45.403-56.296 548.05 1.3235 508.85 1.7415 521.3-2.943 9.8835-12.647 5.8134 44.602 8.511-528.13 24.768 31.409 53.065 47.413 91.615 56.897 6.2588 1.532-2.0923 450.97 4.7195 464.85 2.5127 5.1201 553.73 548.78 554.91 558.42 6.2639 51.073 48.565 90.869 105.52 81.541 62.654-10.258 102.03-86.173 52.758-147.38-2.6798-3.3248-10.094-10.288-11.484-14.014-3.0768-8.2231-0.0646-32.178-0.0845-41.726l-0.0148-181.93c0.0298-7.0817 2.7939-38.441 0.2134-43.502-0.2444-0.4801 14.382 15.582-351.53-352.6-4.9377-4.9529-25.716-24.689-23.736-29.557 40.057-98.526-57.103-150.56-120.07-119.95-47.78 23.218-61.002 77.796-38.063 119.7 18.69 34.134 55.21 50.995 86.692 49.14 4.8929-0.2877 25.468-5.3849 28.143-4.0052 4.0494 2.0945 11.246 11.553 14.853 15.256 55.255 56.051-16.189-16.455 344.82 349.97l-1.0074 223.53c-25.98 5.9156-44.699 11.627-63.949 31.428-540.19-540.17-519.46-520.62-520.85-523.02-1.1029-1.9116 0.5409 19.064-0.288-438.63 40.748-12.153 69.785-29.156 90.881-67.328 59.216-107.15-32.275-233.84-158.88-207.92-3.3894 0.6947-14.774 4.501-17.493 4.0147-7.6276-1.355-154.32-152.47-171.9-172.15 12.704-45.668 12.009-64.754 7.9204-91.957-6.1735-38.269-34.287-78.585-65.889-100.6-34.649-24.138-73.412-30.815-114.87-27.268-45.686 9.9742-83.889 28.777-110.14 69.448-54.701 84.772-20.203 183.74 48.584 224.85 50.577 30.229 105.42 17.883 111.32 19.939 3.3262 1.1579-12.714-13.187 167.13 167.74l0.9578 559.96c-679.43-674.99-648.51-642.16-671.81-671.82 23.181-43.684 31.096-87.123 16.898-135.52-40.772-138.99-233.83-149.66-296.96-23.076-63.705 127.73 64.129 273.43 197.6 222.32l38.554-19.061c711.49 706.64 648.33 639.34 670.32 666.53l-559.47 0.2085-156.88-158.23c0.7306-57.244-4.6386-103.13-47.196-145.75-32.106-32.158-74.843-46.758-119.69-46.455-142.6 0.9506-211.34 176.47-106.92 276.04zm902.8 500.81c-5.8113 0.4912-11.548 0.0692-17.369-0.1638-7.1907-3.7518-13.742-7.042-18.029-14.223-5.1314-8.5952-5.9104-18.863-2.6501-28.342 3.5483-10.297 12.938-16.53 22.486-20.446 6.362-1.1316 10.685-1.6674 16.823 0.8287 23.721 9.6436 35.906 47.62-1.2606 62.346zm701.79 364.68c2.5757-10.392 10.808-16.263 19.742-20.922 5.3198-0.8735 10.168-1.7915 15.503-0.5062 15.709 3.77 27.534 20.078 20.694 39.165-4.6696 12.989-19.724 20.231-30.55 18.853-16.249-2.0524-29.018-21.984-25.389-36.59zm-154.72-924.12c-30.545 8.0715-46.405-17.28-38.962-40.694 3.0817-9.7021 11.206-14.774 19.84-18.858 31.045-7.902 58.607 39.93 19.121 59.552zm359.76 725.09c4.1837-9.7418 11.141-14.099 20.59-17.915 26.929-5.6196 38.702 18.156 32.014 37.845-3.3199 9.7864-10.183 13.206-19.017 17.508-4.7988 0.4764-9.563 1.1862-14.268-0.407-11.432-3.8694-26.729-19.771-19.32-37.031zm-608.3-1229.5c76.916-5.5115 114.84 68.051 84.643 122.25-12.982 23.295-34.356 34.341-58.778 41.84-20.004 1.9054-35.8 1.7866-53.939-8.6747-59.389-34.265-66.67-134.77 28.074-155.42zm-339.98-188.06c-81.939 14.933-150.25-67.243-110.33-142.64 15.697-29.656 39.061-44.201 70.102-53.87 18.838-2.038 36.475-1.8265 54.301 5.2298 54.361 21.516 78.624 82.325 58.152 129.4-14.461 33.232-39.518 49.81-72.221 61.885zm66.708 34.61 25.066-24.147 158.71 158.64-23.498 26.788-160.27-161.28zm-685.89 90.418c-21.185 0.883-39.629 0.5558-58.955-9.6967-47.811-25.358-71.508-89.836-38.309-143.2 16.901-27.164 39.51-37.663 69.478-44.663 133.67-6.9391 153.01 167.77 27.785 197.56zm230.16 792.44c99.301-6.8276 135.77 142.17 18.853 170.76-18.094 0.3075-36.624-1.4491-52.549-10.868-65.935-38.976-60.056-140.83 33.696-159.89zm-227.51-187.82c1.9905 0 4.0857-0.6356 5.9725 0 7.7407 2.6077 93.039 100.62 150.45 149.78-31.553 22.408-27.625 19.965-31.93 21.846l-145.82-145.49 21.323-26.128zm-215.45-155.79c20.229-26.331 47.581-36.232 79.164-40.545 23.902 0.9529 43.457 5.3598 63.355 19.389 62.408 43.994 63.682 166.18-54.388 182.3-99.358-0.1766-132.8-102.99-88.132-161.15z"/> <path d="m349.31 310.6c-16.137 6.5404-28.474 12.564-35.844 29.409-7.9289 18.124-5.2001 55.732 27.026 66.612 10.109 3.4132 19.84 3.2186 30.368 2.7444 16.158-6.6945 28.94-14.754 35.611-32.005 11.566-29.912-8.1639-69.347-57.161-66.76z"/> <path d="m4621.6 408.08c8.436 2.1989 18.5 0.9726 27.121 0.2241 14.943-7.0011 27.448-13.784 32.977-30.403 4.2534-12.788 3.1318-32.308-3.4097-44.096-14.464-26.055-33.487-26.055-59.283-23.163-14.779 8.1029-26.55 16.161-31.81 33.088-9.4581 30.463 6.4209 57.06 34.406 64.35z"/> <path d="m1350.1 646.75c13.563-4.0447 23.632-12.387 30.083-25.111 13.971-27.554-10.322-58.571-40.341-57.07-12.883 3.6969-22.128 8.5206-29.012 20.51-19.682 34.278 9.8169 65.751 39.269 61.671z"/> <path d="m3698.6 634.54c13.047-21.756 3.656-49.645-17.553-60.847-7.4441-3.932-15.31-4.1089-23.389-5.3096-14.943 5.9703-27.369 11.855-34.312 27.607-9.738 22.07 0.0659 47.147 23.717 56.311 6.0889 2.3571 12.744 2.8434 19.195 3.3845 14.347-4.1739 24.371-7.856 32.342-21.146z"/> <path d="m606.92 1377c5.897 0.6519 11.841-0.3429 18.56-0.8733 11.727-6.6448 22.927-13.121 27.543-26.63 7.3765-21.581-4.1245-49-31.215-54.177-7.5334-1.4441-15.116-0.6602-22.64 0.3523-12.317 6.8436-22.258 14.397-26.178 28.625-7.1078 25.813 11.654 50.262 33.93 52.703z"/> <path d="m4407.2 1375.9c12.049-6.6251 21.81-13.488 25.949-27.23 7.8804-26.183-9.3115-46.454-32.559-52.475-7.3301-1.9006-14.943-1.2157-22.406-0.6797-12.739 7.444-22.536 14.828-26.288 29.835-2.5903 10.362-1.8262 24.218 4.3618 33.245 15.948 23.25 35.029 18.901 50.942 17.305z"/> <path d="m4793 1752.2c8.2427 3.1859 18.987 3.0371 27.716 2.501 16.113-6.1388 26.857-12.719 34.376-28.838 11.252-24.123 3.0498-56.678-26.556-69.452-8.9619-3.8707-17.607-3.9999-27.18-3.5234-15.161 5.1511-27.384 10.977-35.121 25.831-14.604 28.008-2.7934 62.06 26.764 73.482z"/> <path d="m214.22 1655.3c-9.5008-1.8312-19.566-0.9181-29.067 0.3922-14.481 8.4911-26.7 17.806-31.547 34.639-8.3481 28.982 9.0776 58.339 38.539 64.931 8.3823 1.876 15.926 1.1761 24.329-0.0597 16.217-7.6124 29.089-16.148 34.957-34.024 4.053-12.342 1.249-31.558-5.4709-42.689-6.7938-11.25-18.687-20.674-31.742-23.191z"/> <path d="m2895.4 2113.3c-14.858-23.413-36.3-17.375-89.025-17.424-87.53-0.0273-676.42-0.8826-686.82 2.1934-28.189 18.062-18.95 39.643-18.987 78.99-0.4797 737.76-2.3499 690.3 7.3201 703.86 12.715 17.827 26.607 12.617 71.73 12.63 738.32 0.179 689.09 1.3145 701.43-2.7197 24.121-14.772 20.875-26.007 20.903-52.738 0.357-766.22 1.5386-712.04-6.5505-724.79zm-733.17 719.48 0.7493-673.9 678.32-0.1885 0.1836 673.03-679.26 1.062z"/> <path d="m185.7 2686.5 613.24 0.551 189.78-191.74c-178.61-179.89-169.34-167.32-186-190.21l-617.79 0.3325c-23.469-40.836-50.653-64.071-96.953-61.616-99.87 16.869-113.05 126.32-47.952 172.41 49.545 35.082 120.69 19.983 145.79-51.438 631.85 0.564 587.59 0.1907 589.38 0.8289 11.523 4.084 115.34 112.64 133.31 129.89l-107.78 107.69c-4.6104 4.6599-20.506 23.746-24.982 24.952-6.4185 1.7271-588.72-0.4211-589.1-0.4221-14.294-28.937-30.03-53.189-61.97-64.588-23.468-8.3721-48.956-4.5608-70.923 6.5603-19.314 9.7815-31.696 24.774-42.942 42.709-10.551 25.835-13.808 48.013-2.8619 73.79 31.315 73.758 125.56 94.835 177.76 0.3073zm-78.766-317.04c-33.286 9.4246-49.016-23.589-42.643-42.247 3.4412-10.074 10.384-15.592 19.246-20.783 42.616-13.906 59.629 39.909 23.397 63.03zm-37.243 267.27c5.7067-9.5679 12.62-12.476 22.989-15.171 27.709-1.9944 41.193 26.74 28.235 49.815-5.3831 9.5825-13.832 12.828-23.906 15.682-5.4425-0.1289-11.219-0.3472-16.076-3.1064-13.406-7.6284-22.174-28.872-11.242-47.22z"/> <path d="m4981.1 2597.7c-69.577-75.013-142.74-31.536-166.38 30.173l-581.18 0.0098-130.75-133.91 128.18-129.22 581.79 1.9553c15.697 28.977 34.769 54.594 68.067 64.291 80.832 23.525 149.14-65.695 105.18-141.59-12.357-21.3-34.044-36.52-57.815-42.247-13.349-3.2209-28.724-2.6848-42.277-1.1018-33.666 11.181-51.552 29.091-69.943 58.683-653.58 0.8394-607.71 0.2498-610.13 1.2161-8.7974 3.5186 5.668-7.7903-188.48 187.29l188.31 192.58 611.27 0.74c13.35 26.461 30.451 49.03 60.118 58.147 88.262 27.134 157.79-67.96 104.02-147.01zm-84.638-291.22c6.7339-1.9951 12.386-1.2856 19.23-0.6306 7.126 4.2034 12.456 7.8906 16.228 15.518 4.8633 9.8508 4.9126 21.478 0.9922 31.632-3.623 9.3794-10.844 13.379-19.701 16.853-4.6748 0.7842-10.184 1.1958-14.888 0.4368-26.863-4.3228-34.524-46.799-1.8608-63.81zm34.068 369.33c-4.9624 8.3425-11.851 10.714-20.837 12.789-5.1914-0.0745-10.179-0.1042-15.117-1.9207-24.349-8.9355-31.124-50.049 6.4565-62.594 31.204-5.2133 44.786 26.044 29.498 51.726z"/> <path d="m1605.4 4043.3c72.915-27.919 59.435-104.77 61.12-108.67 2.5592-5.9197 355.43-353.38 356.84-357.21 0.1664-0.4521-0.0332-285.6 0.2383-286.1 3.4093-6.2034 13.508-13.226 18.218-19.414 18.273-24.005 18.615-64.341 6.0645-90.866-37.455-79.158-169.63-66.697-173.66 47.026-51.517 52.748-545.73 537.73-550.06 552.22-0.119 0.3972 0.1882 397.93 0.1885 398.35-0.0596 58.624 2.2698 49.979-3.5382 51.22-26.029 5.563-56.534 18.6-76.311 36.813-6.5854 6.064-12.436 14.764-19.836 19.538l-2.2035-512.08-485.29-0.6648c18.158-32.173 31.483-59.453 37.081-96.191 453.76-0.0527 432.65 0.7646 433.02 0.6604 11.009-3.0979 554.23-556.93 555.88-557.73 6.0048-2.9033 23.458-0.5261 31.418-2.2581 62.258-13.541 95.984-98.679 38.833-154.22-18.138-17.633-41.02-26.589-70.127-25.21-45.787 7.9937-52.878 31.068-59.775 34.862-4.3275 2.3726-197.36 0.3127-220.44 0.2783-13.017-0.0149-41.205-3.6775-52.832 0.6304-8.1196 2.9941-371.93 373.75-375.96 372.45-24.719-7.9951-48.505-7.8608-71.894 4.1934-22.595 11.647-41.587 33.641-49.219 57.82-16.218 51.357 18.211 104.77 65.804 116.54 53.472 13.233 102.44-15.318 114.08-73.73 4.5508-22.848-2.2382-44.822-12.144-65.264l355.77-353.81 223.37-0.3425c5.5312 23.51 12.996 36.643 27.22 58.088-45.622 53.567-98.3 102.51-148.06 152.32-391.96 393.88-375 376.42-381.58 377.09l-408.44-1.1909c-73.058-163.43-251.25-117.98-291.2-4.5803-18.962 53.836-2.0933 80.767-6.6896 92.23-0.1492 0.3726 8.6115-9.1606-174.36 169.85-187.48-42.886-259.04 132.86-193.98 231.57 48.906 74.185 147.42 101.79 225.28 49.195 31.563-21.319 58.338-59.433 65.198-97.218 1.9215-10.585 1.6407-55.1 5.0301-58.222l171.94-172.3 551.53 2.6699c-688.24 694.01-644.82 650.45-665.54 666.41-124.36-92.031-274.85 19.478-255.37 152.74 12.697 86.817 88.091 152.84 187.23 137.2 80.634-12.719 145.5-90.501 126.7-193.61-3.1165-17.082-10.481-33.085-17.915-48.668 190.78-192.86 654.74-658.35 668.12-675.3l2.5309 562.16c-37.085 37.025-6.7999 6.7632-167.41 167.32-85.063-14.257-176.99 55.289-186.76 148.97-8.3328 79.94 53.449 163.09 150.83 170.66 112.86 8.8833 194.34-100.46 168.93-202.48-1.2108-4.854-8.0743-21.22-6.8384-24.416 0.7798-2.0195 149.72-152.16 170.5-173.17 149.27 35.553 236.73-119.75 166.2-226.14-18.083-27.282-46.058-51.722-79.492-58.142l-0.0348-435.28 520.17-516.91c18.31 16.69 33.157 20.169 58.931 23.146 0.3591 260.25 1.2982 239.58-0.6748 244.36-5.3403 12.915-214.34 218.89-329.49 333.52-23.702-15.652-45.408-24.074-74.325-17.582-26.55 5.96-51.472 24.138-64.951 47.909-11.186 19.722-12.496 49.185-5.6128 70.306 14.174 43.516 69.286 77.24 117.74 58.678zm143.57-1028.2c3.9055-7.9849 9.7417-10.962 17.726-13.91 23.487-5.0925 39.162 17.422 33.051 36.237-3.3151 10.218-9.0668 14.158-17.93 19.131-5.5383 0.9775-11.394 1.9604-16.828-0.0547-15.054-5.5856-24.326-24.407-16.019-41.403zm-716.51 450.35c-6.6051 1.8508-13.081 1.2754-19.85 1.0469-18.964-8.8086-26.1-26.296-20.684-43.616 3.2704-10.461 11.062-15.325 20.471-19.711 40.024-8.6211 57.536 41.456 20.064 62.281zm-720.18 622.75c-20.446 24.202-43.894 32.019-74.463 34.838-116.58-7.5264-141.27-176.09 2.4246-199.2 43.085-0.9023 91.89 41.975 95.844 85.149 2.6922 29.398-4.5747 56.445-23.806 79.209zm62.496-149.27-23.85-27.965c118.44-120.26 127.48-130.07 148.94-147.5 7.7664 8.0247 13.98 16.997 20.471 26.044l-145.56 149.42zm263.19-177.79c-119.7 15.658-157.69-151.65-28.888-187.7 114.66-9.3408 155.39 148.49 28.888 187.7zm-260.99 965.66c-21.69 1.7666-42.542 1.5332-62.406-8.3623-75.974-37.842-75.456-168.64 31.95-192.12 20.696-1.082 37.837 0.4067 56.928 9.6572 70.032 33.95 83.517 162.33-26.472 190.82zm687 82.072c-16.004 28.942-40.684 42.039-71.393 50.157-125.74 15.546-173.38-158.96-31.409-198.66 85.235-10.394 143.52 74.859 102.8 148.5zm26.451-164.38c-9.965-7.7417-19.662-14.015-30.649-20.158l158.25-160.52 27.364 27.87-154.97 152.81zm338.24-279.9c3.702 22.297-3.5234 41.885-16.089 60.008-16.739 24.153-37.493 34.347-65.581 39.671-113.9-1.6899-135.66-157.02-6.4911-178.03 48.993 2.6934 82.446 43.909 88.162 78.356zm527.7-1117c-11.197-2.5493-22.423-17.156-17.682-33.304 3.33-11.324 9.5432-16.605 19.632-21.999 5.4192-0.9678 11.28-2.3125 16.679-0.5906 16.147 5.1467 23.295 26.762 18.064 39.309-4.0594 9.7366-10.729 13.518-20.173 16.992-5.4985 0.481-11.086 0.8284-16.521-0.4072zm-393.82 740.19c-16.903-7.7136-21.846-32.985-13.325-47.413 7.0167-11.878 23.034-15.928 33.473-13.841 31.12 6.2275 35.274 48.278-1.8558 62.237-6.6848 1.3098-11.886 1.9402-18.292-0.9826z"/> <path d="m4768.2 3862.5c-40.654-1.738-61.641 12.359-72.152 8.8384-0.5884-0.1963-154.08-153.09-163.84-163.81 9.3003-49.572 8.228-91.695-21.15-134.59-73.308-107.01-224.53-73.019-256.3 42.252l-439.32 0.7593-511.93-519.89c14.312-23.027 16.888-38.034 21.831-64.271l217.48 0.0894 353.1 356.37c-10.386 28.332-15.2 51.651-1.9009 80.42 38.07 82.35 146.62 67.578 172.04-14.63 15.455-49.965-18.686-104.58-61.88-116.76-23.796-6.7097-42.733 1.2107-65.998 3.2456-0.6697 0.0593-1.4585 0.4612-2.0195 0.0891-5.9651-3.9502-12.819-13.831-18.034-19.275-124.63-126.94-140.16-137.87-321.41-322.16-7.4041-7.5681-20.813-24.908-30.103-29.235-6.2083-2.8933-32.818-0.7292-40.679-0.8137-247.5 1.2017-225.17 2.167-229.93-1.082-21.374-14.58-40.664-21.285-66.901-19.533-94.069 15.83-107.61 124.94-40.168 170.18 14.436 9.6821 34.704 17.34 52.237 13.791l5.8955-1.4045c4.0227 4.5686-38.261-38.227 538.94 543.61l466.21 0.2283c12.129 35.584 29.129 70.183 57.542 94.558-528.26 1.9006-521.83 0.3323-529.28 4.9875l-0.0054 526.22c-26.57-31.314-57.487-48.927-97.357-58.529l-0.0742-383.27c-0.3455-89.662 7.8145-66.446-20.798-95.487l-527.25-529.1c0.4961-29.012-2.9531-49.94-24.193-71.825-60.575-62.404-156.19-17.044-154.54 66.668 0.4915 24.838 11.965 41.954 25.061 61.894-0.1042 267.17-0.0364 215.34-0.2532 268.93-0.0813 14.638-4.4172 8.4443 18.079 31.701 354.69 359.08 338.75 339.64 337.06 349.97-4.1885 25.433-3.3794 54.797 12.65 76.3 33.343 44.733 96.212 48.262 133.92 19.092 70.241-54.362 25.212-183.13-82.673-157.69-4.1289 0.9778-19.374 7.5234-21.994 7.1313-5.9849-0.9031-302.56-305.78-336.72-341.61l-0.1292-236.8c53.319-4.0979 41.765-11.239 62.951-16.322l518.04 519.13 0.3572 436.66c-84.116 28.579-115.99 110.38-92.916 177.19 20.443 59.186 73.484 94.602 128.04 94.801 32.954 0.1304 43.569-6.0264 46.425-4.8237 11.553 4.7939 152.2 153.38 173.3 174.31 1.5042 5.2651 1.6826 2.7295 0.0447 7.0967-15.24 40.535-16.203 84.846 1.896 124.68 63.783 140.4 254.38 122.28 299.68-16.154 29.499-90.163-25.628-180.45-110.7-204.05-30.512-8.4727-57.862-1.6963-61.7-2.9131-6.1104-1.9419-167.23-163.66-167.43-164.06-1.6382-3.311-1.5227-277.14-1.156-558.27l663.43 660.89c-56.509 86.651-27.904 187.03 46.797 231.78 82.77 49.568 183.07 18.237 226.34-58.599 73.775-130.99-55.437-275.61-180.41-238.24-17.9 5.3496-30.768 16.853-47.408 22.922-11.502-9.1069-665.51-663.75-665.95-664.19 558.01 1.2214 506.81 1.937 521.23-0.0747 2.9771-4.0195 9.3838-14.948 13.781-15.95 51.329 33.532 94.455 85.412 137.52 128.87 13.99 14.124 36.956 32.054 46.361 49.125-5.1118 48.431-1.2012 93.094 30.986 132.49 58.33 71.392 162.94 76.006 228.41 21.052 77.674-65.186 71.928-167.12 16.347-228.61-26.824-29.672-66.847-52.57-107.33-54.302zm-796.3-464.3c3.5186-0.1787 7.1907-0.5012 10.704 0.0496 17.048 2.6819 32.06 20.552 24.987 39.021-4.5461 11.871-13.627 16.516-24.813 20.848-38.65 5.979-56.118-49.036-10.878-59.919zm-728.56-331.34c-5.4741 0.5908-11.667 1.5635-16.982-0.2776-13.687-4.7542-22.842-22.843-16.694-37.84 4.0742-9.9302 11.722-13.995 21.245-17.627 33.538-5.2239 46.938 39.72 12.431 55.745zm171.56 867.31c6.0493-1.1365 13.896-2.377 19.875-0.541 27.714 8.5205 31.335 52.354-0.3721 64.783-5.6228 1.1165-9.1907 1.7964-14.957 0.7739-26.003-4.613-40.682-46.256-4.5458-65.016zm-344.89-702.21c-2.5308 7.6423-8.6846 11.409-15.245 15.24-5.062 1.3748-8.9377 1.5833-14.114 1.2256-7.762-0.5408-12.466-3.4241-17.315-9.573-6.521-8.2825-5.9651-16.932-4.4119-26.743 4.7195-7.7715 7.6077-10.357 15.488-14.888 25.142-7.824 43.051 12.238 35.597 34.738zm607.87 1228.8c-17.93 1.4443-34.927 0.0498-50.971-8.853-59.523-33.039-64.779-128.63 24.625-151.39 16.794-0.5508 30.366-0.3472 46.113 6.7046 61.394 27.522 74.281 124.41-19.767 153.53zm329.82 197.09c99.163-11.734 139.56 81.481 107.57 142.96-39.369 75.646-148.2 75.809-182.71-9.7266-9.7666-24.223-7.821-52.053 3.0913-75.586 14.432-31.126 41.036-46.956 72.052-57.651zm-65.442-38.564-21.513 17.206c-2.4565 1.166-4.8389 1.8213-7.4438 2.5703l-152.61-152.17 23.101-28.476 158.46 160.87zm685.04-90.251c129.01-2.3989 147.46 172.47 18.502 200.61-131.66 7.3165-157.9-170.86-18.502-200.61zm-209.21-795.05c-19.002 2.6997-36.411 3.9453-54.664-3.8013-42.633-18.087-62.481-72.282-44.594-113.65 10.644-24.615 29.498-36.123 53.259-45.538 20.183-1.1211 38.848-1.9006 57.329 7.7471 42.196 22.03 58.637 81.787 37.026 119.94-10.774 19.027-27.866 29.344-48.356 35.299zm206.54 195.45-149.11-146 21.354-23.697c40.664 31.582 79.368 74.122 115.29 111.32 10.178 10.54 26.471 24.049 33.29 36.842l-20.818 21.533zm133.87 194.44c-18.987-1.4438-34.743-3.3745-51.478-13.523-78.546-47.624-71.894-165.66 46.575-186.56 120.97 2.463 147.81 179.41 4.9028 200.08z"/> <path d="m4822.5 3234.6c-7.9653-3.9304-17.355-4.9526-26.079-5.9949-16.724 4.9927-28.927 11.583-37.349 27.548-17.352 32.876 1.0591 76.035 50.118 73.591 62.237-20.631 45.271-79.408 13.31-95.144z"/> <path d="m221.96 3234.8c-9.5011-3.7717-18.987-4.1934-29.052-3.6873-17.172 5.8113-28.87 13.136-36.786 30.069-4.7695 10.203-5.3938 25.284-0.9845 35.711 5.2311 12.367 19.012 26.118 32.233 29.736 8.3164 2.2729 18.598 1.4541 27.186 1.3748 57.327-22.694 42.994-79.063 7.4034-93.203z"/> <path d="m4397.1 3615.4c-8.0249-1.29-17.295-1.0122-25.106 1.1963-10.575 5.4587-19.13 11.796-22.401 23.88-6.7095 24.804 9.855 48.664 32.917 53.135 6.4863 1.2607 13.337-0.585 21.359-2.064 11.553-7.5386 20.927-15.161 23.33-29.538 1.6274-9.7764-0.3872-21.9-6.3276-29.984-5.2701-7.1666-14.72-15.171-23.771-16.625z"/> <path d="m612.49 3624c-41.224 14.921-43.366 67.216-6.8135 82.941 8.1833 3.5186 17.101 2.7095 25.761 2.1589 13.26-6.0396 24.635-12.55 30.148-26.789 12.602-32.568-16.873-64.165-49.096-58.311z"/> <path d="m2716 4813.8c-3.9255-2.7393-21.791-10.774-23.632-13.925-3.6331-6.2148 0.6453-597.28 0.5012-597.65-1.3865-3.5366 6.3533 5.2729-188.68-189.11l-192.52 191.62c0.574 606.33 0.9512 579.89-2.1191 590.74-28.158 22.665-50.376 41.706-55.338 79.948-6.46 49.797 40.275 97.112 88.345 99.675 97.948 5.1235 139.69-138.88 28.386-180.4-3.072-526.47-5.1221-501.32-0.0896-559.02 0.6609-7.5967-15.523 11.194 132.86-138.4 120.56 118.64 119.43 117.13 130.48 130.99l-0.2234 565.28c-26.59 12.536-52.728 28.953-63.165 58.346-18.406 51.836 12.884 104.43 63.03 118.64 53.693 15.125 104.15-17.855 113.77-61.616 8.2634-37.652-0.6597-73.518-31.607-95.109zm-339.77 82.722c-3.8362 10.56-12.645 14.724-22.158 19.369-7.1016 0.1841-14.634 0.645-21.255-2.3521-6.9922-3.1611-13.161-10.258-15.558-17.558-2.5115-7.6572-2.5261-21.86 2.1438-28.778 5.6572-8.3818 12.431-12.52 22.039-14.888 4.3472-0.1245 8.5259-0.2729 12.779 0.8091 17.957 4.5797 28.925 24.37 22.009 43.398zm310.72 2.5112c-4.6548 9.5381-14.893 13.409-24.297 16.451-7.6626 0.4619-13.612-0.1489-20.501-3.8657-9.7444-5.2642-23.552-23.708-12.466-41.88 5.7717-9.4736 13.766-14.466 24.173-17.424 26.455-2.2754 45.274 21.782 33.091 46.718z"/> <path d="m1332.3 4335.1c-15.712 8.4463-26.674 15.26-31.686 33.617-2.9874 10.933-0.5657 22.605 5.6377 31.984 13.036 19.708 31.13 16.771 41.85 15.756 13.652-7.7363 26.664-16.476 31.374-32.346 6.8367-23.073-12.641-45.698-33.14-48.892-4.5756-0.7099-9.4291-0.3969-14.035-0.1191z"/> <path d="m3674.3 4340c-6.6086-1.1221-12.919-0.1338-22.486 0.2085-11.295 6.7544-21.97 12.953-25.176 26.595-2.7441 11.662-2.2979 24.252 4.1191 34.718 11.468 18.703 26.815 20.04 48.544 17.767 11.801-6.9326 21.374-13.518 25.414-27.28 7.0178-23.882-11.839-48.855-30.416-52.008z"/> <path d="m375.45 4580.2c-8.0573-3.0967-17.94-2.0845-26.433-1.7471-15.027 6.1738-28.336 13.474-34.824 29.434-9.9496 24.476-0.122 55.257 26.229 65.819 8.9498 3.5884 18.6 3.2607 28.076 3.2905 14.86-5.7568 27.012-12.943 33.967-27.965 12.224-26.398-1.5984-59.063-27.016-68.832z"/> <path d="m4619.2 4677.9c8.2778 2.6006 16.759 3.1362 25.369 3.355 15.706-5.7173 30.123-12.332 37.304-28.724 13.06-29.839-7.792-75.512-53.998-74.196-18.536 6.9077-31.533 13.781-40.228 32.609-5.4888 11.88-5.1157 29.443 0.2983 41.394 5.6523 12.466 18.46 21.548 31.254 25.562z"/> <path d="m1738.1 4735c-7.0665-3.6675-14.808-4.769-22.649-5.3198-16.545 4.228-26.396 8.2529-35.676 23.379-16.337 26.615-4.1266 56.124 18.957 68.073 7.434 3.8462 15.106 4.6846 23.329 5.2153 17.082-4.6201 28.446-9.543 37.9-25.384 14.318-24 0.0479-54.586-21.861-65.963z"/> </svg>