<svg width="60" height="60" viewBox="0 0 60 60" fill="none" xmlns="http://www.w3.org/2000/svg">
<path d="M7.5 30H30V33.75H7.5V30ZM3.75 20.625H22.5V24.375H3.75V20.625Z" fill="black"/>
<path d="M56.0981 31.1363L50.4731 18.0113C50.3286 17.674 50.0883 17.3867 49.782 17.1847C49.4757 16.9827 49.1169 16.875 48.75 16.875H43.125V13.125C43.125 12.6277 42.9274 12.1508 42.5758 11.7992C42.2242 11.4475 41.7473 11.25 41.25 11.25H11.25V15H39.375V38.5425C38.5211 39.0393 37.7738 39.6998 37.176 40.4862C36.5781 41.2726 36.1415 42.1694 35.8912 43.125H24.1087C23.6524 41.3575 22.5671 39.8171 21.0562 38.7926C19.5454 37.7681 17.7128 37.3298 15.9019 37.5598C14.091 37.7898 12.4261 38.6724 11.2194 40.0421C10.0127 41.4118 9.34689 43.1745 9.34689 45C9.34689 46.8255 10.0127 48.5882 11.2194 49.9579C12.4261 51.3276 14.091 52.2102 15.9019 52.4402C17.7128 52.6702 19.5454 52.2319 21.0562 51.2074C22.5671 50.1829 23.6524 48.6425 24.1087 46.875H35.8912C36.2991 48.4842 37.2319 49.9114 38.5421 50.9309C39.8522 51.9504 41.4649 52.504 43.125 52.504C44.7851 52.504 46.3978 51.9504 47.7079 50.9309C49.0181 49.9114 49.9509 48.4842 50.3587 46.875H54.375C54.8723 46.875 55.3492 46.6775 55.7008 46.3258C56.0524 45.9742 56.25 45.4973 56.25 45V31.875C56.2499 31.621 56.1982 31.3697 56.0981 31.1363ZM16.875 48.75C16.1333 48.75 15.4083 48.5301 14.7916 48.118C14.1749 47.706 13.6943 47.1203 13.4104 46.4351C13.1266 45.7498 13.0523 44.9958 13.197 44.2684C13.3417 43.541 13.6989 42.8728 14.2233 42.3484C14.7478 41.8239 15.416 41.4667 16.1434 41.3221C16.8708 41.1774 17.6248 41.2516 18.31 41.5355C18.9953 41.8193 19.5809 42.2999 19.993 42.9166C20.4051 43.5333 20.625 44.2583 20.625 45C20.625 45.9946 20.2299 46.9484 19.5266 47.6516C18.8234 48.3549 17.8695 48.75 16.875 48.75ZM43.125 20.625H47.5125L51.5325 30H43.125V20.625ZM43.125 48.75C42.3833 48.75 41.6583 48.5301 41.0416 48.118C40.4249 47.706 39.9443 47.1203 39.6604 46.4351C39.3766 45.7498 39.3023 44.9958 39.447 44.2684C39.5917 43.541 39.9489 42.8728 40.4733 42.3484C40.9978 41.8239 41.666 41.4667 42.3934 41.3221C43.1208 41.1774 43.8748 41.2516 44.5601 41.5355C45.2453 41.8193 45.8309 42.2999 46.243 42.9166C46.6551 43.5333 46.875 44.2583 46.875 45C46.875 45.9946 46.4799 46.9484 45.7766 47.6516C45.0734 48.3549 44.1195 48.75 43.125 48.75ZM52.5 43.125H50.3587C49.9457 41.5189 49.0114 40.0953 47.7023 39.0774C46.3932 38.0594 44.7833 37.5046 43.125 37.5V33.75H52.5V43.125Z" fill="black"/>
</svg>
