<svg width="48" height="38" viewBox="0 0 48 38" fill="none" xmlns="http://www.w3.org/2000/svg">
<path d="M6.5 31.5C6.5 32.8261 7.02678 34.0979 7.96447 35.0355C8.90215 35.9732 10.1739 36.5 11.5 36.5C12.8261 36.5 14.0979 35.9732 15.0355 35.0355C15.9732 34.0979 16.5 32.8261 16.5 31.5C16.5 30.1739 15.9732 28.9021 15.0355 27.9645C14.0979 27.0268 12.8261 26.5 11.5 26.5C10.1739 26.5 8.90215 27.0268 7.96447 27.9645C7.02678 28.9021 6.5 30.1739 6.5 31.5ZM31.5 31.5C31.5 32.8261 32.0268 34.0979 32.9645 35.0355C33.9021 35.9732 35.1739 36.5 36.5 36.5C37.8261 36.5 39.0979 35.9732 40.0355 35.0355C40.9732 34.0979 41.5 32.8261 41.5 31.5C41.5 30.1739 40.9732 28.9021 40.0355 27.9645C39.0979 27.0268 37.8261 26.5 36.5 26.5C35.1739 26.5 33.9021 27.0268 32.9645 27.9645C32.0268 28.9021 31.5 30.1739 31.5 31.5Z" stroke="black" stroke-width="2.5" stroke-linecap="round" stroke-linejoin="round"/>
<path d="M6.5 31.5H1.5V4C1.5 3.33696 1.76339 2.70107 2.23223 2.23223C2.70107 1.76339 3.33696 1.5 4 1.5H26.5V16.5H14M14 16.5L19 21.5M14 16.5L19 11.5M16.5 31.5H31.5M26.5 4H39L46.5 16.5V31.5H41.5" stroke="black" stroke-width="2.5" stroke-linecap="round" stroke-linejoin="round"/>
</svg>
